<svg width="33" height="32" viewBox="0 0 33 32" fill="none" xmlns="http://www.w3.org/2000/svg">
<path d="M29.3077 16.3114C29.3077 15.1603 29.2147 14.3203 29.0136 13.4492H15.9326V18.6447H23.6108C23.4561 19.9358 22.6202 21.8803 20.7625 23.1869L20.7364 23.3608L24.8724 26.5804L25.1589 26.6091C27.7906 24.1669 29.3077 20.5736 29.3077 16.3114Z" fill="#4285F4"/>
<path d="M15.9326 30.0001C19.6943 30.0001 22.8523 28.7556 25.1589 26.609L20.7625 23.1867C19.586 24.0112 18.0069 24.5867 15.9326 24.5867C12.2483 24.5867 9.12128 22.1446 8.00659 18.769L7.8432 18.783L3.54257 22.1274L3.48633 22.2845C5.77741 26.8578 10.4835 30.0001 15.9326 30.0001Z" fill="#34A853"/>
<path d="M8.00634 18.7689C7.71222 17.8978 7.542 16.9644 7.542 16C7.542 15.0355 7.71222 14.1022 7.99087 13.2311L7.98308 13.0456L3.62856 9.64746L3.48608 9.71556C2.54182 11.6133 2 13.7445 2 16C2 18.2556 2.54182 20.3866 3.48608 22.2844L8.00634 18.7689Z" fill="#FBBC05"/>
<path d="M15.9326 7.41327C18.5488 7.41327 20.3135 8.54881 21.3198 9.49776L25.2518 5.63998C22.8369 3.38444 19.6943 2 15.9326 2C10.4835 2 5.77741 5.14218 3.48633 9.71545L7.99111 13.231C9.12128 9.85551 12.2483 7.41327 15.9326 7.41327Z" fill="#EB4335"/>
</svg>
