<svg width="22" height="22" viewBox="0 0 22 22" fill="none" xmlns="http://www.w3.org/2000/svg">
<path d="M11 21.5C16.799 21.5 21.5 16.799 21.5 11C21.5 5.20101 16.799 0.5 11 0.5C5.20101 0.5 0.5 5.20101 0.5 11C0.5 15.2601 3.03702 18.9276 6.68261 20.5742C6.6875 20.4605 6.69301 20.3564 6.69773 20.2671C6.70416 20.1453 6.70914 20.0511 6.70914 19.9982C6.70914 19.6827 6.92368 18.1178 6.92368 18.1178L8.23618 12.729C8.03426 12.4008 7.88281 11.7067 7.88281 11.1767C7.88281 8.72836 9.2458 8.19831 10.0787 8.19831C11.1388 8.19831 11.3786 9.34675 11.3786 10.1923C11.3786 10.6396 11.1466 11.3396 10.9079 12.06C10.6548 12.8236 10.3942 13.61 10.3942 14.1424C10.3942 15.1773 11.4165 15.6947 12.1232 15.6947C13.991 15.6947 15.7073 13.3473 15.7073 11C15.7073 8.65264 14.6094 5.81309 11.0126 5.81309C7.41587 5.81309 5.80048 8.55167 5.80048 10.6466C5.80048 12.0601 6.33053 13.0949 6.59556 13.2716C6.67128 13.3389 6.8 13.5467 6.70914 13.8395C6.61827 14.1323 6.45253 14.786 6.38101 15.0763C6.3726 15.1436 6.29267 15.258 6.04027 15.1773C5.72476 15.0763 3.71815 13.8143 3.71815 10.6466C3.71815 7.47896 6.20433 3.79386 11.0126 3.79386C15.8209 3.79386 18.2819 7.02463 18.2819 11C18.2819 14.9754 15.0637 17.512 12.6154 17.512C10.6567 17.512 9.88942 16.637 9.7506 16.1995L9.00601 19.0391C8.8302 19.5101 8.50222 20.3568 8.09778 21.0938C9.01952 21.3583 9.99321 21.5 11 21.5Z" fill="#BB0F23"/>
</svg>