<svg width="24" height="24" viewBox="0 0 24 24" fill="none" xmlns="http://www.w3.org/2000/svg">
<circle cx="12" cy="12" r="10.5" fill="#FFFA37"/>
<path fill-rule="evenodd" clip-rule="evenodd" d="M15.7692 6.13913C15.045 5.2266 13.8504 4.5 12.0088 4.5C10.4318 4.51553 7.27784 5.38834 7.27784 8.75533C7.27784 9.24706 7.31676 9.90561 7.35077 10.3906C7.31069 10.3789 7.26141 10.3571 7.18331 10.3197L7.17246 10.3145C7.03436 10.2482 6.82438 10.1474 6.53235 10.1474C6.23734 10.1474 5.95209 10.2629 5.74032 10.4343C5.52982 10.6046 5.35 10.8664 5.35 11.1829C5.35 11.5788 5.57281 11.8416 5.83333 12.0101C6.06474 12.1598 6.35654 12.2554 6.58752 12.3311L6.61036 12.3386C6.85762 12.4197 7.03882 12.4815 7.16377 12.5594C7.26102 12.62 7.27578 12.6584 7.27761 12.6948C7.27634 12.7 7.27337 12.7112 7.2669 12.7293C7.25356 12.7668 7.23138 12.8174 7.19896 12.8807C7.1343 13.007 7.04001 13.1623 6.92783 13.328C6.70154 13.6621 6.42538 14.0048 6.21909 14.2032C6.01561 14.3989 5.68172 14.6422 5.33262 14.8358C5.1595 14.9318 4.9902 15.0114 4.83875 15.066C4.68242 15.1225 4.56785 15.144 4.49706 15.144C4.44102 15.144 4.39252 15.1555 4.37135 15.1608C4.3416 15.1682 4.31081 15.178 4.28034 15.1895C4.21993 15.2122 4.14792 15.2463 4.0766 15.2942C3.94033 15.386 3.75 15.5709 3.75 15.8626C3.75 16.0149 3.78575 16.1438 3.84754 16.2556C3.90163 16.3535 3.97115 16.4278 4.01117 16.4706L4.01711 16.4769L4.02818 16.4888C4.24826 16.7256 4.61256 16.8903 4.96621 17.0034C5.27009 17.1005 5.60985 17.1729 5.94091 17.2163C5.94559 17.2377 5.95048 17.2607 5.95583 17.2859L5.95755 17.294C5.97839 17.3923 6.006 17.5225 6.04666 17.6425C6.08502 17.7558 6.15449 17.9233 6.29673 18.0426C6.47788 18.1945 6.71481 18.2099 6.8694 18.2092C7.03535 18.2086 7.22911 18.1852 7.41296 18.163L7.42861 18.1612C7.68731 18.13 7.95793 18.0978 8.23823 18.0978C8.74976 18.0978 9.07762 18.3115 9.59206 18.6628L9.59554 18.6652C9.77372 18.7869 9.97323 18.9231 10.2 19.0571C10.9591 19.5057 11.5759 19.5018 11.9255 19.4996C11.9486 19.4995 11.9705 19.4994 11.9912 19.4994C12.0119 19.4994 12.0339 19.4995 12.0571 19.4997C12.4072 19.5019 13.0405 19.506 13.8 19.0571C14.0268 18.9231 14.2263 18.7869 14.4045 18.6652L14.4079 18.6628C14.9224 18.3115 15.2502 18.0978 15.7618 18.0978C16.0421 18.0978 16.3127 18.13 16.5714 18.1612L16.587 18.163C16.7709 18.1852 16.9646 18.2086 17.1306 18.2092C17.2852 18.2099 17.5221 18.1945 17.7033 18.0426C17.8455 17.9233 17.915 17.7558 17.9533 17.6425C17.994 17.5225 18.0216 17.3923 18.0424 17.294L18.0442 17.2859C18.0495 17.2607 18.0544 17.2377 18.0591 17.2163C18.3902 17.1729 18.7299 17.1005 19.0338 17.0034C19.3874 16.8903 19.7518 16.7255 19.9719 16.4888L19.9829 16.4769L19.9888 16.4706C20.0288 16.4278 20.0984 16.3535 20.1525 16.2556C20.2143 16.1438 20.25 16.0149 20.25 15.8626C20.25 15.5709 20.0597 15.386 19.9234 15.2942C19.8521 15.2463 19.7801 15.2122 19.7197 15.1895C19.6892 15.178 19.6584 15.1682 19.6287 15.1608C19.6075 15.1555 19.559 15.144 19.5029 15.144C19.4322 15.144 19.3176 15.1225 19.1612 15.066C19.0098 15.0114 18.8405 14.9318 18.6674 14.8358C18.3183 14.6422 17.9844 14.3989 17.7809 14.2032C17.5746 14.0048 17.2985 13.6621 17.0722 13.328C16.96 13.1623 16.8657 13.0071 16.801 12.8807C16.7686 12.8174 16.7464 12.7668 16.7331 12.7293C16.7266 12.7112 16.7237 12.7 16.7224 12.6948C16.7242 12.6583 16.739 12.62 16.8362 12.5594C16.9612 12.4815 17.1424 12.4197 17.3896 12.3386L17.4125 12.3311C17.6435 12.2554 17.9353 12.1598 18.1667 12.0101C18.4272 11.8416 18.65 11.5788 18.65 11.1829C18.65 10.8664 18.4702 10.6046 18.2597 10.4343C18.0479 10.2629 17.7627 10.1474 17.4676 10.1474C17.1756 10.1474 16.9656 10.2482 16.8275 10.3145L16.8167 10.3197C16.7386 10.3571 16.6893 10.3789 16.6492 10.3906C16.6832 9.90561 16.7222 9.24706 16.7222 8.75533C16.7222 8.08777 16.4795 7.03428 15.7692 6.13913ZM8.83742 6.57955C8.23662 7.33162 8.03078 8.22462 8.03078 8.75533C8.03078 9.2474 8.07246 9.93099 8.10764 10.4212C8.11932 10.584 8.08594 10.7737 7.94377 10.9244C7.79986 11.0768 7.60409 11.1263 7.4292 11.1263C7.17667 11.1263 6.9846 11.0339 6.86174 10.9748L6.84747 10.968C6.71038 10.9023 6.63831 10.8717 6.53235 10.8717C6.43596 10.8717 6.31828 10.9131 6.22496 10.9886C6.13036 11.0651 6.10294 11.14 6.10294 11.1829C6.10294 11.2702 6.13514 11.3325 6.25346 11.4091C6.3932 11.4995 6.59232 11.5674 6.85335 11.653L6.87607 11.6605C7.09284 11.7315 7.36133 11.8195 7.57321 11.9515C7.81104 12.0998 8.03078 12.338 8.03078 12.7051C8.03078 12.8013 8.00418 12.8939 7.9792 12.9641C7.9521 13.0402 7.91547 13.1206 7.87443 13.2007C7.79218 13.3614 7.68095 13.5428 7.55869 13.7234C7.31612 14.0815 7.00778 14.4688 6.7515 14.7154C6.49241 14.9646 6.10278 15.2447 5.70869 15.4633C5.51022 15.5734 5.30301 15.6721 5.10321 15.7442C4.92436 15.8087 4.7316 15.8593 4.54668 15.8672C4.54207 15.8691 4.53698 15.8715 4.53165 15.8741C4.52312 15.8784 4.51515 15.8831 4.50819 15.8878L4.50463 15.8902C4.50533 15.8952 4.50613 15.8989 4.50679 15.9015C4.50827 15.9073 4.51003 15.9114 4.51239 15.9157C4.51964 15.9288 4.53107 15.9434 4.57733 15.993L4.58946 16.006C4.67278 16.0957 4.87812 16.212 5.20361 16.316C5.51361 16.4151 5.88018 16.4867 6.2265 16.5195C6.39978 16.5359 6.49966 16.6442 6.54193 16.7025C6.58544 16.7626 6.61033 16.826 6.62487 16.8681C6.653 16.9495 6.67425 17.0499 6.69101 17.129L6.69356 17.141C6.71644 17.2489 6.73646 17.3411 6.76256 17.4182C6.77179 17.4454 6.7803 17.4662 6.78763 17.4814C6.80415 17.4833 6.82949 17.4851 6.8662 17.4849C7.02544 17.4843 7.18488 17.4606 7.34266 17.4415C7.5951 17.4111 7.90749 17.3735 8.23823 17.3735C9.00532 17.3735 9.5115 17.7193 10.0005 18.0534L10.0279 18.0722C10.2089 18.1958 10.3902 18.3195 10.5941 18.44C11.1688 18.7795 11.606 18.7771 11.9255 18.7753C11.948 18.7752 11.9699 18.7751 11.9912 18.7751C12.0123 18.7751 12.0341 18.7752 12.0565 18.7753C12.3794 18.777 12.8313 18.7795 13.4059 18.44C13.6098 18.3195 13.7911 18.1958 13.9721 18.0722L13.9995 18.0534C14.4885 17.7193 14.9947 17.3735 15.7618 17.3735C16.0925 17.3735 16.4049 17.4111 16.6573 17.4415L16.665 17.4425C16.8691 17.4671 17.0185 17.4845 17.1338 17.4849C17.1705 17.4851 17.1958 17.4833 17.2124 17.4814C17.2197 17.4662 17.2282 17.4454 17.2374 17.4182C17.2635 17.3411 17.2836 17.2489 17.3064 17.141L17.309 17.129C17.3258 17.0499 17.347 16.9495 17.3751 16.8681C17.3897 16.826 17.4146 16.7626 17.4581 16.7025C17.5003 16.6442 17.6002 16.5359 17.7735 16.5195C18.1198 16.4867 18.4864 16.4151 18.7964 16.316C19.1219 16.212 19.3272 16.0957 19.4105 16.006L19.4227 15.993C19.4689 15.9435 19.4804 15.9288 19.4876 15.9157C19.49 15.9114 19.4917 15.9073 19.4932 15.9015C19.4939 15.8989 19.4947 15.8952 19.4954 15.8902L19.4918 15.8878C19.4849 15.8831 19.4769 15.8784 19.4684 15.8741C19.463 15.8715 19.4579 15.8691 19.4533 15.8672C19.2684 15.8593 19.0756 15.8087 18.8968 15.7442C18.697 15.6721 18.4898 15.5734 18.2913 15.4633C17.8972 15.2447 17.5076 14.9646 17.2485 14.7154C16.9922 14.4688 16.6839 14.0815 16.4413 13.7234C16.319 13.5428 16.2078 13.3614 16.1256 13.2007C16.0845 13.1206 16.0479 13.0402 16.0208 12.9641C15.9958 12.8939 15.9692 12.8013 15.9692 12.7051C15.9692 12.338 16.189 12.0998 16.4268 11.9515C16.6387 11.8195 16.9072 11.7315 17.1239 11.6605L17.1467 11.653C17.4077 11.5674 17.6068 11.4995 17.7465 11.4091C17.8649 11.3325 17.8971 11.2702 17.8971 11.1829C17.8971 11.14 17.8696 11.0651 17.775 10.9886C17.6817 10.9131 17.564 10.8717 17.4676 10.8717C17.3617 10.8717 17.2896 10.9023 17.1525 10.968L17.1383 10.9748C17.0154 11.0339 16.8233 11.1263 16.5708 11.1263C16.3959 11.1263 16.2001 11.0768 16.0562 10.9244C15.9141 10.7737 15.8807 10.584 15.8924 10.4212C15.9275 9.93099 15.9692 9.2474 15.9692 8.75533C15.9692 8.22324 15.767 7.33014 15.1707 6.57862C14.5881 5.84448 13.6143 5.22431 12.0088 5.22431C10.4032 5.22431 9.42451 5.84466 8.83742 6.57955Z" fill="black"/>
<path fill-rule="evenodd" clip-rule="evenodd" d="M8.83737 6.57961C8.23656 7.33167 8.03072 8.22467 8.03072 8.75538C8.03072 9.24746 8.0724 9.93104 8.10758 10.4212C8.11926 10.584 8.08589 10.7738 7.94371 10.9244C7.79981 11.0769 7.60404 11.1264 7.42915 11.1264C7.17662 11.1264 6.98455 11.034 6.86168 10.9749L6.84742 10.968C6.71033 10.9023 6.63826 10.8717 6.5323 10.8717C6.43591 10.8717 6.31822 10.9132 6.2249 10.9887C6.13031 11.0652 6.10289 11.1401 6.10289 11.183C6.10289 11.2702 6.13508 11.3326 6.2534 11.4091C6.39315 11.4995 6.59226 11.5675 6.85329 11.6531L6.87602 11.6605C7.09278 11.7315 7.36127 11.8195 7.57315 11.9516C7.81099 12.0998 8.03072 12.3381 8.03072 12.7051C8.03072 12.8014 8.00412 12.894 7.97915 12.9641C7.95204 13.0402 7.91542 13.1206 7.87438 13.2008C7.79213 13.3615 7.6809 13.5429 7.55864 13.7234C7.31607 14.0816 7.00772 14.4689 6.75144 14.7154C6.49236 14.9647 6.10272 15.2448 5.70864 15.4634C5.51017 15.5734 5.30296 15.6722 5.10315 15.7443C4.9243 15.8088 4.73154 15.8594 4.54663 15.8673C4.54202 15.8692 4.53693 15.8715 4.53159 15.8742C4.52307 15.8785 4.51509 15.8831 4.50814 15.8878L4.50458 15.8903C4.50528 15.8953 4.50607 15.8989 4.50674 15.9015C4.50822 15.9073 4.50997 15.9115 4.51234 15.9157C4.51959 15.9289 4.53102 15.9435 4.57727 15.993L4.58941 16.0061C4.67273 16.0957 4.87807 16.212 5.20356 16.3161C5.51355 16.4151 5.88012 16.4867 6.22645 16.5196C6.39973 16.536 6.4996 16.6443 6.54188 16.7026C6.58539 16.7627 6.61027 16.8261 6.62481 16.8682C6.65295 16.9496 6.67419 17.0499 6.69096 17.1291L6.6935 17.1411C6.71639 17.2489 6.7364 17.3411 6.7625 17.4182C6.77173 17.4455 6.78025 17.4662 6.78758 17.4815C6.8041 17.4833 6.82944 17.4851 6.86614 17.485C7.02539 17.4843 7.18483 17.4606 7.34261 17.4416C7.59504 17.4112 7.90743 17.3735 8.23818 17.3735C9.00527 17.3735 9.51144 17.7194 10.0004 18.0535L10.0279 18.0722C10.2088 18.1958 10.3901 18.3195 10.5941 18.44C11.1687 18.7796 11.606 18.7771 11.9254 18.7754C11.9479 18.7752 11.9698 18.7751 11.9911 18.7751C12.0123 18.7751 12.034 18.7752 12.0564 18.7753C12.3794 18.7771 12.8313 18.7795 13.4058 18.44C13.6098 18.3195 13.7911 18.1958 13.972 18.0722L13.9995 18.0535C14.4884 17.7194 14.9946 17.3735 15.7617 17.3735C16.0925 17.3735 16.4049 17.4112 16.6573 17.4416L16.6649 17.4425C16.869 17.4671 17.0184 17.4845 17.1337 17.485C17.1705 17.4851 17.1958 17.4833 17.2123 17.4815C17.2196 17.4662 17.2282 17.4455 17.2374 17.4182C17.2635 17.3411 17.2835 17.2489 17.3064 17.1411L17.3089 17.129C17.3257 17.0499 17.3469 16.9496 17.3751 16.8682C17.3896 16.8261 17.4145 16.7627 17.458 16.7026C17.5003 16.6443 17.6002 16.536 17.7734 16.5196C18.1198 16.4867 18.4863 16.4151 18.7963 16.3161C19.1218 16.212 19.3272 16.0957 19.4105 16.0061L19.4226 15.9931C19.4689 15.9435 19.4803 15.9289 19.4876 15.9157C19.4899 15.9115 19.4917 15.9073 19.4932 15.9015C19.4938 15.8989 19.4946 15.8953 19.4953 15.8903L19.4918 15.8878C19.4848 15.8831 19.4768 15.8785 19.4683 15.8742C19.463 15.8715 19.4579 15.8692 19.4533 15.8673C19.2684 15.8594 19.0756 15.8088 18.8967 15.7443C18.6969 15.6722 18.4897 15.5734 18.2913 15.4634C17.8972 15.2448 17.5075 14.9647 17.2484 14.7154C16.9922 14.4689 16.6838 14.0816 16.4413 13.7234C16.319 13.5429 16.2078 13.3615 16.1255 13.2008C16.0845 13.1206 16.0479 13.0402 16.0207 12.9641C15.9958 12.894 15.9692 12.8014 15.9692 12.7051C15.9692 12.3381 16.1889 12.0998 16.4267 11.9516C16.6386 11.8195 16.9071 11.7315 17.1239 11.6605L17.1466 11.6531C17.4076 11.5675 17.6067 11.4995 17.7465 11.4091C17.8648 11.3326 17.897 11.2702 17.897 11.183C17.897 11.1401 17.8696 11.0652 17.775 10.9887C17.6817 10.9132 17.564 10.8717 17.4676 10.8717C17.3616 10.8717 17.2896 10.9023 17.1525 10.968L17.1382 10.9749C17.0153 11.034 16.8233 11.1264 16.5707 11.1264C16.3959 11.1264 16.2001 11.0769 16.0562 10.9244C15.914 10.7738 15.8806 10.584 15.8923 10.4212C15.9275 9.93104 15.9692 9.24746 15.9692 8.75538C15.9692 8.22329 15.767 7.3302 15.1706 6.57867C14.588 5.84453 13.6142 5.22437 12.0088 5.22437C10.4032 5.22437 9.42446 5.84472 8.83737 6.57961Z" fill="white"/>
</svg>